<svg id="Capa_1" data-name="Capa 1" xmlns="http://www.w3.org/2000/svg" viewBox="0 0 672.45 68.14"><defs><style>.cls-1{fill:#19f973;stroke:#3d3834;stroke-miterlimit:10;}.cls-2{fill:#3d3834;}</style></defs><title>EXPANDED_VERSION_GREEN_GRID</title><rect class="cls-1" x="0.5" y="0.5" width="67.14" height="67.14"/><rect class="cls-1" x="67.64" y="0.5" width="67.14" height="67.14"/><rect class="cls-1" x="134.79" y="0.5" width="67.14" height="67.14"/><rect class="cls-1" x="201.93" y="0.5" width="67.14" height="67.14"/><rect class="cls-1" x="269.08" y="0.5" width="67.14" height="67.14"/><rect class="cls-1" x="336.22" y="0.5" width="67.14" height="67.14"/><rect class="cls-1" x="403.37" y="0.5" width="67.14" height="67.14"/><rect class="cls-1" x="470.51" y="0.5" width="67.14" height="67.14"/><rect class="cls-1" x="537.66" y="0.5" width="67.14" height="67.14"/><rect class="cls-1" x="604.8" y="0.5" width="67.14" height="67.14"/><path class="cls-2" d="M57.05,13.67a12.73,12.73,0,0,0-8.35-2.95c-5.79,0-12,3.67-12,11.73V45.83c0,2.07-1,3.35-2.61,3.35s-2.6-1.28-2.6-3.35V22.45c0-8.06-6.24-11.73-12-11.73a12.75,12.75,0,0,0-8.35,2.95A11.17,11.17,0,0,0,7.3,22.45V56.58h9.13V23.15c0-2.43,1.1-3.88,2.95-3.88s3,1.41,3,3.88V45.36c0,7.83,4.17,12.14,11.73,12.14s11.74-4.31,11.74-12.14V23.15c0-2.47,1.07-3.88,2.95-3.88s3,1.45,3,3.88V56.58h9.12V22.45A11.17,11.17,0,0,0,57.05,13.67Z"/><path class="cls-2" d="M101.22,10.45c-5.46,0-9.25,3-11,8.71L79,56.29H89.25L92,46h18.53l2.71,10.28h10.23L112.2,19.16C110.47,13.46,106.67,10.45,101.22,10.45Zm-7,27,3.64-13.73c.54-2.07,1.66-3.12,3.33-3.12s2.79,1.05,3.33,3.12l3.64,13.73Z"/><path class="cls-2" d="M187.76,26c0-6.6-4.12-14.32-15.71-14.32H149V56.54h9.58V41.05H171a4.89,4.89,0,0,1,5.06,5.06V56.54H186.5V46.24a8,8,0,0,0-5.2-7.64L180,38.05l1.28-.63C185.51,35.33,187.76,31.38,187.76,26ZM170.6,33.37h-12V20.28h12.12c5,0,6.78,3.36,6.78,6.51C177.45,30.79,174.76,33.37,170.6,33.37Z"/><path class="cls-2" d="M232.2,39.42h16.17l-.32.87c-1.79,4.87-6.26,7.67-12.28,7.67C228,48,222.6,42,222.6,33.41a15.57,15.57,0,0,1,3.58-10.34,12.89,12.89,0,0,1,10-4.29c5.64,0,10.08,3,11.93,8h10.59C256.1,16.54,247.22,9.92,236,9.92c-13.57,0-23.81,10.1-23.81,23.49,0,13.56,9.88,23.41,23.48,23.41,14.33,0,23-9.46,23.21-25.34H232.2Z"/><path class="cls-2" d="M448.81,34l-1.1-.52,1-.62a10.5,10.5,0,0,0,5.49-9.2c0-5.75-4.36-11.95-13.92-11.95H418.55V56.54h22.56c10,0,14.51-6.47,14.51-12.47C455.62,39.69,453.14,36,448.81,34ZM427.67,20h11.66c3.75,0,5.72,2.55,5.72,5.06s-2,5.13-5.72,5.13H427.67ZM440,48.27H428.07V37.49H440a5.4,5.4,0,1,1,0,10.78Z"/><polygon class="cls-2" points="552.69 19.54 566.47 19.54 566.47 55.8 575.99 55.8 575.99 19.54 589.77 19.54 589.77 10.95 552.69 10.95 552.69 19.54"/><polygon class="cls-2" points="630.49 47.94 630.49 37.88 651.03 37.88 651.03 29.29 630.49 29.29 630.49 20.28 655.12 20.28 655.12 11.68 620.97 11.68 620.97 56.54 655.78 56.54 655.78 47.94 630.49 47.94"/><path class="cls-2" d="M381.79,46.48a1.63,1.63,0,0,1-3.19.47l-8.53-28.41a11.11,11.11,0,0,0-21.75,3.2v34.8h9.49V21.74a1.62,1.62,0,0,1,3.18-.47l8.53,28.41a11.11,11.11,0,0,0,21.75-3.2V11.68h-9.48Z"/><polygon class="cls-2" points="288.54 19.54 297.89 19.54 297.89 47.2 288.54 47.2 288.54 55.8 316.76 55.8 316.76 47.2 307.41 47.2 307.41 19.54 316.76 19.54 316.76 10.95 288.54 10.95 288.54 19.54"/><polygon class="cls-2" points="489.98 19.54 499.33 19.54 499.33 47.2 489.98 47.2 489.98 55.8 518.2 55.8 518.2 47.2 508.85 47.2 508.85 19.54 518.2 19.54 518.2 10.95 489.98 10.95 489.98 19.54"/></svg>