<svg id="Capa_1" data-name="Capa 1" xmlns="http://www.w3.org/2000/svg" viewBox="0 0 648.48 47.67"><defs><style>.cls-1{fill:#3d3834;}</style></defs><title>EXPANDED_VERSION_POSITIVE</title><path class="cls-1" d="M49.75,3.74A12.74,12.74,0,0,0,41.4.8c-5.79,0-12,3.67-12,11.73V35.9c0,2.07-1,3.36-2.61,3.36S24.16,38,24.16,35.9V12.53C24.16,4.47,17.93.8,12.14.8A12.74,12.74,0,0,0,3.79,3.74,11.21,11.21,0,0,0,0,12.53V46.65H9.13V13.22c0-2.43,1.1-3.88,2.95-3.88s3,1.42,3,3.88V35.44c0,7.83,4.16,12.14,11.73,12.14S38.5,43.27,38.5,35.44V13.22c0-2.46,1.08-3.88,3-3.88s2.95,1.45,2.95,3.88V46.65h9.13V12.53A11.21,11.21,0,0,0,49.75,3.74Z"/><path class="cls-1" d="M93.91.53c-5.45,0-9.25,3-11,8.7L71.71,46.37H82l2.7-10.28h18.53l2.7,10.28h10.24L104.9,9.23C103.17,3.54,99.37.53,93.91.53Zm-7,27,3.65-13.73c.53-2.07,1.65-3.12,3.32-3.12s2.8,1,3.33,3.12l3.65,13.73Z"/><path class="cls-1" d="M180.45,16.08c0-6.61-4.11-14.32-15.7-14.32H141.67V46.61h9.58V31.12H163.7a4.9,4.9,0,0,1,5.06,5.06V46.61H179.2V36.32a8,8,0,0,0-5.2-7.65l-1.33-.54L174,27.5C178.21,25.4,180.45,21.45,180.45,16.08ZM163.3,23.45H151.25V10.35h12.12c5,0,6.77,3.37,6.77,6.52C170.14,20.87,167.46,23.45,163.3,23.45Z"/><path class="cls-1" d="M224.9,29.49h16.16l-.31.87C239,35.24,234.48,38,228.47,38c-7.76,0-13.17-6-13.17-14.56a15.56,15.56,0,0,1,3.58-10.33,12.86,12.86,0,0,1,10-4.29c5.64,0,10.08,3,11.93,8h10.59C248.8,6.62,239.92,0,228.67,0c-13.58,0-23.81,10.09-23.81,23.48,0,13.57,9.87,23.42,23.48,23.42,14.33,0,23-9.47,23.21-25.34H224.9Z"/><path class="cls-1" d="M441.5,24.05l-1.09-.52,1-.62a10.49,10.49,0,0,0,5.48-9.21C446.93,8,442.58,1.76,433,1.76H411.25V46.61H433.8c10,0,14.52-6.46,14.52-12.47C448.32,29.77,445.84,26.09,441.5,24.05ZM420.37,10H432c3.76,0,5.73,2.54,5.73,5.06s-2,5.13-5.73,5.13H420.37Zm12.31,28.32H420.76V27.56h11.92a5.4,5.4,0,1,1,0,10.79Z"/><polygon class="cls-1" points="545.39 9.62 559.17 9.62 559.17 45.88 568.69 45.88 568.69 9.62 582.47 9.62 582.47 1.02 545.39 1.02 545.39 9.62"/><polygon class="cls-1" points="623.19 38.02 623.19 27.96 643.73 27.96 643.73 19.36 623.19 19.36 623.19 10.36 647.82 10.36 647.82 1.76 613.67 1.76 613.67 46.61 648.48 46.61 648.48 38.02 623.19 38.02"/><path class="cls-1" d="M374.49,36.56a1.63,1.63,0,0,1-3.19.47L362.77,8.62A11.11,11.11,0,0,0,341,11.81v34.8h9.48V11.81a1.63,1.63,0,0,1,3.19-.47l8.53,28.42A11.11,11.11,0,0,0,384,36.56V1.76h-9.48Z"/><polygon class="cls-1" points="281.24 9.62 290.59 9.62 290.59 37.28 281.24 37.28 281.24 45.88 309.46 45.88 309.46 37.28 300.11 37.28 300.11 9.62 309.46 9.62 309.46 1.02 281.24 1.02 281.24 9.62"/><polygon class="cls-1" points="482.67 9.62 492.02 9.62 492.02 37.28 482.67 37.28 482.67 45.88 510.89 45.88 510.89 37.28 501.54 37.28 501.54 9.62 510.89 9.62 510.89 1.02 482.67 1.02 482.67 9.62"/></svg>