<svg id="Capa_1" data-name="Capa 1" xmlns="http://www.w3.org/2000/svg" viewBox="0 0 151.05 151.06"><defs><style>.cls-1{fill:#19f973;}</style></defs><title>ICON_GREEN</title><path class="cls-1" d="M128.61,0H22.44A22.47,22.47,0,0,0,0,22.44v96.92H14.4v-93a12,12,0,0,1,12-12h98.29a12,12,0,0,1,12,12v98.29a12,12,0,0,1-12,12H52.42A10.45,10.45,0,0,1,42,126.22v-78c0-6.11,3.41-8.29,6.6-8.29,1.55,0,6.59.6,6.59,8.29v55.81c0,13.8,7,21.1,20.36,21.1s20.35-7.3,20.35-21.1V48.26c0-7.69,5.05-8.29,6.6-8.29,3.18,0,6.59,2.18,6.59,8.29v71.1h14.4V47c0-6.28-2.27-11.54-6.55-15.23a22.16,22.16,0,0,0-14.55-5.13C92,26.63,81.49,32.93,81.49,47v57.93c0,5.41-3.21,7.33-6,7.33s-6-1.92-6-7.33V47c0-14.06-10.49-20.36-20.89-20.36a22.16,22.16,0,0,0-14.55,5.13c-4.28,3.68-6.54,9-6.54,15.23v83.49a20.61,20.61,0,0,0,20.58,20.58h80.44a22.46,22.46,0,0,0,22.44-22.44V22.44A22.46,22.46,0,0,0,128.61,0Z"/></svg>