<svg id="Capa_1" data-name="Capa 1" xmlns="http://www.w3.org/2000/svg" viewBox="0 0 572.9 60.2"><defs><style>.cls-1{fill:#19f973;}</style></defs><title>LOGO_GREEN</title><path class="cls-1" d="M63.77,3.87A16.32,16.32,0,0,0,53.07.09c-7.43,0-15.41,4.7-15.41,15v30c0,2.65-1.29,4.3-3.35,4.3S31,47.74,31,45.09v-30c0-10.34-8-15-15.41-15A16.32,16.32,0,0,0,4.86,3.87,14.34,14.34,0,0,0,0,15.13V58.87H11.7V16c0-3.12,1.41-5,3.79-5s3.78,1.82,3.78,5V44.49c0,10,5.34,15.56,15,15.56s15-5.52,15-15.56V16c0-3.16,1.38-5,3.79-5s3.79,1.86,3.79,5V58.87h11.7V15.13A14.34,14.34,0,0,0,63.77,3.87Z"/><path class="cls-1" d="M104.17.09C97.19.09,92.32,4,90.1,11.25L75.72,58.85H88.83L92.3,45.67h23.75l3.47,13.18h13.11L118.25,11.24C116,4,111.16.09,104.17.09ZM95.24,34.65l4.67-17.6c.69-2.66,2.12-4,4.26-4s3.58,1.34,4.27,4l4.67,17.6Z"/><path class="cls-1" d="M189.44,19.71c0-8.47-5.27-18.35-20.13-18.35H139.72V58.85H152V39h16a6.28,6.28,0,0,1,6.49,6.49V58.85h13.39V45.65a10.23,10.23,0,0,0-6.67-9.8l-1.7-.69,1.65-.82C186.56,31.66,189.44,26.6,189.44,19.71Zm-22,9.45H152V12.37h15.53c6.4,0,8.69,4.32,8.69,8.35C176.23,25.85,172.78,29.16,167.45,29.16Z"/><path class="cls-1" d="M222.47,37.89H243.2L242.79,39c-2.29,6.25-8,9.83-15.74,9.83-9.94,0-16.88-7.67-16.88-18.65a19.94,19.94,0,0,1,4.59-13.25,16.48,16.48,0,0,1,12.8-5.5c7.23,0,12.92,3.85,15.29,10.31h13.58C253.11,8.57,241.73.09,227.31.09c-17.4,0-30.52,12.94-30.52,30.1,0,17.39,12.65,30,30.09,30,18.37,0,29.47-12.13,29.76-32.48H222.47Z"/><path class="cls-1" d="M414.19,29.92l-1.41-.66,1.34-.8a13.45,13.45,0,0,0,7-11.79c0-7.38-5.59-15.31-17.85-15.31H375.4V58.85h28.92c12.78,0,18.6-8.29,18.6-16C422.92,37.25,419.74,32.54,414.19,29.92ZM387.1,12H402c4.81,0,7.33,3.27,7.33,6.49S406.85,25,402,25H387.1Zm15.78,36.3H387.6V34.43h15.28c4.82,0,7.34,3.47,7.34,6.91S407.7,48.25,402.88,48.25Z"/><polygon class="cls-1" points="474.05 12.37 491.71 12.37 491.71 58.85 503.92 58.85 503.92 12.37 521.58 12.37 521.58 1.35 474.05 1.35 474.05 12.37"/><polygon class="cls-1" points="540.49 47.83 540.49 34.93 566.82 34.93 566.82 23.92 540.49 23.92 540.49 12.37 572.06 12.37 572.06 1.35 528.29 1.35 528.29 58.85 572.9 58.85 572.9 47.83 540.49 47.83"/><path class="cls-1" d="M352.5,46a2.09,2.09,0,0,1-4.09.6L337.48,10.14a14.24,14.24,0,0,0-27.88,4.1V58.85h12.15V14.24a2.09,2.09,0,0,1,4.09-.6l10.93,36.42A14.24,14.24,0,0,0,364.65,46V1.36H352.5Z"/><polygon class="cls-1" points="262.06 12.37 274.05 12.37 274.05 47.83 262.06 47.83 262.06 58.85 298.24 58.85 298.24 47.83 286.25 47.83 286.25 12.37 298.24 12.37 298.24 1.35 262.06 1.35 262.06 12.37"/><polygon class="cls-1" points="431.17 12.37 443.15 12.37 443.15 47.83 431.17 47.83 431.17 58.85 467.34 58.85 467.34 47.83 455.36 47.83 455.36 12.37 467.34 12.37 467.34 1.35 431.17 1.35 431.17 12.37"/></svg>