<svg id="Capa_1" data-name="Capa 1" xmlns="http://www.w3.org/2000/svg" viewBox="0 0 779.67 103.38"><defs><style>.cls-1{fill:#19f973;}</style></defs><title>COMPLETE_GREEN</title><path class="cls-1" d="M270.53,25.46a16.3,16.3,0,0,0-10.7-3.78c-7.42,0-15.41,4.71-15.41,15v30c0,2.65-1.28,4.3-3.34,4.3s-3.34-1.65-3.34-4.3v-30c0-10.33-8-15-15.42-15a16.32,16.32,0,0,0-10.7,3.78,14.34,14.34,0,0,0-4.86,11.26V80.46h11.7V37.61c0-3.12,1.42-5,3.79-5s3.79,1.81,3.79,5V66.08c0,10,5.34,15.56,15,15.56s15-5.52,15-15.56V37.61c0-3.16,1.38-5,3.79-5s3.78,1.85,3.78,5V80.46h11.7V36.72A14.34,14.34,0,0,0,270.53,25.46Z"/><path class="cls-1" d="M310.94,21.68c-7,0-11.86,3.86-14.08,11.16l-14.38,47.6H295.6l3.46-13.18h23.76l3.46,13.18H339.4L325,32.83C322.8,25.54,317.93,21.68,310.94,21.68ZM302,56.24l4.67-17.6c.69-2.66,2.13-4,4.27-4s3.58,1.35,4.27,4l4.67,17.6Z"/><path class="cls-1" d="M396.21,41.3c0-8.47-5.28-18.35-20.13-18.35H346.49V80.44h12.28V60.58h16a6.28,6.28,0,0,1,6.49,6.49V80.44H394.6V67.24a10.24,10.24,0,0,0-6.67-9.8l-1.7-.69,1.65-.82C393.33,53.25,396.21,48.19,396.21,41.3Zm-22,9.45H358.77V34H374.3c6.41,0,8.69,4.32,8.69,8.35C383,47.44,379.55,50.75,374.22,50.75Z"/><path class="cls-1" d="M429.24,59.48H450l-.41,1.12c-2.29,6.25-8,9.84-15.73,9.84-9.94,0-16.89-7.68-16.89-18.66a19.94,19.94,0,0,1,4.59-13.25A16.53,16.53,0,0,1,434.33,33c7.22,0,12.92,3.85,15.29,10.31h13.57c-3.32-13.18-14.69-21.66-29.12-21.66-17.4,0-30.52,12.94-30.52,30.1,0,17.39,12.66,30,30.1,30,18.36,0,29.46-12.13,29.75-32.48H429.24Z"/><path class="cls-1" d="M621,51.51l-1.41-.66,1.34-.8a13.43,13.43,0,0,0,7-11.79c0-7.38-5.58-15.31-17.84-15.31h-27.9V80.44h28.91c12.79,0,18.61-8.29,18.61-16C629.69,58.85,626.5,54.13,621,51.51Zm-27.09-18H608.8c4.82,0,7.34,3.27,7.34,6.49s-2.52,6.58-7.34,6.58H593.86Zm15.79,36.3H594.37V56h15.28c4.81,0,7.33,3.48,7.33,6.91S614.46,69.84,609.65,69.84Z"/><polygon class="cls-1" points="680.82 33.96 698.48 33.96 698.48 80.44 710.68 80.44 710.68 33.96 728.34 33.96 728.34 22.95 680.82 22.95 680.82 33.96"/><polygon class="cls-1" points="747.25 69.42 747.25 56.52 773.58 56.52 773.58 45.51 747.25 45.51 747.25 33.96 778.82 33.96 778.82 22.95 735.05 22.95 735.05 80.44 779.67 80.44 779.67 69.42 747.25 69.42"/><path class="cls-1" d="M559.26,67.55a2.08,2.08,0,0,1-4.08.6L544.24,31.74a14.24,14.24,0,0,0-27.88,4.09V80.44h12.16V35.83a2.08,2.08,0,0,1,4.08-.6l10.94,36.42a14.24,14.24,0,0,0,27.88-4.1V23H559.26Z"/><polygon class="cls-1" points="468.83 33.96 480.82 33.96 480.82 69.42 468.83 69.42 468.83 80.44 505 80.44 505 69.42 493.02 69.42 493.02 33.96 505 33.96 505 22.95 468.83 22.95 468.83 33.96"/><polygon class="cls-1" points="637.93 33.96 649.92 33.96 649.92 69.42 637.93 69.42 637.93 80.44 674.11 80.44 674.11 69.42 662.12 69.42 662.12 33.96 674.11 33.96 674.11 22.95 637.93 22.95 637.93 33.96"/><path class="cls-1" d="M88,0H15.36A15.38,15.38,0,0,0,0,15.36V81.69H9.85V18.06a8.22,8.22,0,0,1,8.21-8.21H85.33a8.21,8.21,0,0,1,8.2,8.21V85.33a8.21,8.21,0,0,1-8.2,8.2H35.88a7.15,7.15,0,0,1-7.15-7.14V33c0-4.18,2.33-5.68,4.52-5.68,1.06,0,4.51.41,4.51,5.68v38.2c0,9.44,4.82,14.43,13.93,14.43s13.93-5,13.93-14.43V33c0-5.27,3.46-5.68,4.52-5.68,2.18,0,4.51,1.5,4.51,5.68V81.69H84.5V32.16A13.26,13.26,0,0,0,80,21.74a15.14,15.14,0,0,0-10-3.51c-7.11,0-14.29,4.31-14.29,13.93V71.81c0,3.7-2.2,5-4.08,5s-4.08-1.32-4.08-5V32.16c0-9.62-7.18-13.93-14.29-13.93a15.14,15.14,0,0,0-10,3.51,13.26,13.26,0,0,0-4.48,10.42V89.3A14.1,14.1,0,0,0,33,103.38H88A15.37,15.37,0,0,0,103.38,88V15.36A15.38,15.38,0,0,0,88,0Z"/></svg>