<svg id="Capa_1" data-name="Capa 1" xmlns="http://www.w3.org/2000/svg" viewBox="0 0 203.82 203.82"><defs><style>.cls-1{fill:#19f973;}.cls-2{fill:#3d3834;}</style></defs><title>PROFILE</title><rect class="cls-1" width="203.82" height="203.82" rx="37.8"/><path class="cls-2" d="M155,26.38H48.82A22.47,22.47,0,0,0,26.38,48.82v96.91h14.4v-93a12,12,0,0,1,12-12h98.29a12,12,0,0,1,12,12v98.29a12,12,0,0,1-12,12H78.8A10.45,10.45,0,0,1,68.36,152.6v-78c0-6.11,3.41-8.29,6.6-8.29,1.55,0,6.59.59,6.59,8.29v55.81c0,13.8,7,21.09,20.36,21.09s20.35-7.29,20.35-21.09V74.64c0-7.7,5-8.29,6.6-8.29,3.18,0,6.59,2.18,6.59,8.29v71.09h14.4V73.37c0-6.28-2.26-11.54-6.55-15.23A22.16,22.16,0,0,0,128.75,53c-10.39,0-20.88,6.3-20.88,20.36V131.3c0,5.41-3.21,7.33-6,7.33s-6-1.92-6-7.33V73.37C96,59.31,85.46,53,75.06,53a22.16,22.16,0,0,0-14.55,5.13c-4.28,3.68-6.54,9-6.54,15.23v83.48a20.61,20.61,0,0,0,20.58,20.59H155A22.46,22.46,0,0,0,177.43,155V48.82A22.46,22.46,0,0,0,155,26.38Z"/></svg>